HIERARCHY
ROOT Hips
{
	OFFSET 0.000000 0.000000 0.000000
	CHANNELS 6 Xposition Yposition Zposition Xrotation Yrotation Zrotation
	JOINT LeftUpLeg_virtual
	{
		OFFSET 0.000000 0.000000 0.000000
		CHANNELS 3 Xrotation Yrotation Zrotation
		JOINT LeftUpLeg
		{
			OFFSET 13.026900 -6.336304 -1.092800
			CHANNELS 3 Xrotation Yrotation Zrotation
			JOINT LeftLeg
			{
				OFFSET 0.524474 -46.096886 9.782700
				CHANNELS 3 Xrotation Yrotation Zrotation
				JOINT LeftFoot
				{
					OFFSET -0.524474 -53.427422 -12.948200
					CHANNELS 3 Xrotation Yrotation Zrotation
					JOINT LeftToeBase
					{
						OFFSET 0.192200 -14.009700 16.364100
						CHANNELS 3 Xrotation Yrotation Zrotation
						JOINT LeftToe_End
						{
							OFFSET -1.784700 -0.561700 9.474800
							CHANNELS 3 Xrotation Yrotation Zrotation
							End Site
							{
								OFFSET 0 0 0
							}
						}
					}
				}
			}
		}
	}
	JOINT RightUpLeg_virtual
	{
		OFFSET 0.000000 0.000000 0.000000
		CHANNELS 3 Xrotation Yrotation Zrotation
		JOINT RightUpLeg
		{
			OFFSET -12.883000 -6.336304 -1.092800
			CHANNELS 3 Xrotation Yrotation Zrotation
			JOINT RightLeg
			{
				OFFSET -0.524587 -46.096825 9.782800
				CHANNELS 3 Xrotation Yrotation Zrotation
				JOINT RightFoot
				{
					OFFSET 0.524587 -53.427383 -12.948300
					CHANNELS 3 Xrotation Yrotation Zrotation
					JOINT RightToeBase
					{
						OFFSET -0.192200 -14.009700 16.364100
						CHANNELS 3 Xrotation Yrotation Zrotation
						JOINT RightToe_End
						{
							OFFSET 1.784700 -0.561700 9.474800
							CHANNELS 3 Xrotation Yrotation Zrotation
							End Site
							{
								OFFSET 0 0 0
							}
						}
					}
				}
			}
		}
	}
	JOINT Spine_virtual
	{
		OFFSET 0.000000 0.000000 0.000000
		CHANNELS 3 Xrotation Yrotation Zrotation
		JOINT Spine
		{
			OFFSET 0.072000 7.257294 -0.789700
			CHANNELS 3 Xrotation Yrotation Zrotation
			JOINT Spine1
			{
				OFFSET 0.000000 12.508769 -0.658067
				CHANNELS 3 Xrotation Yrotation Zrotation
				JOINT Spine1_split
				{
					OFFSET 0.000000 12.508769 -0.658067
					CHANNELS 3 Xrotation Yrotation Zrotation
					JOINT Spine2
					{
						OFFSET 0.000000 12.508769 -0.658067
						CHANNELS 3 Xrotation Yrotation Zrotation
						JOINT Neck_virtual
						{
							OFFSET 0.000000 0.000000 0.000000
							CHANNELS 3 Xrotation Yrotation Zrotation
							JOINT Neck
							{
								OFFSET 0.000000 14.033295 7.520400
								CHANNELS 3 Xrotation Yrotation Zrotation
								JOINT Head
								{
									OFFSET 0.000000 8.198502 5.703100
									CHANNELS 3 Xrotation Yrotation Zrotation
									JOINT HeadTop_End
									{
										OFFSET 0.000000 17.760803 13.332701
										CHANNELS 3 Xrotation Yrotation Zrotation
										End Site
										{
											OFFSET 0 0 0
										}
									}
								}
							}
						}
						JOINT LeftShoulder_virtual
						{
							OFFSET 0.000000 0.000000 0.000000
							CHANNELS 3 Xrotation Yrotation Zrotation
							JOINT LeftShoulder
							{
								OFFSET 6.292450 5.785301 -0.669000
								CHANNELS 3 Xrotation Yrotation Zrotation
								JOINT LeftShoulder_split
								{
									OFFSET 6.292450 5.785301 -0.669000
									CHANNELS 3 Xrotation Yrotation Zrotation
									JOINT LeftArm
									{
										OFFSET 13.907140 -6.093903 1.965100
										CHANNELS 3 Xrotation Yrotation Zrotation
										JOINT LeftForeArm
										{
											OFFSET 34.140198 0.000000 0.000000
											CHANNELS 3 Xrotation Yrotation Zrotation
											JOINT LeftHand
											{
												OFFSET 40.960209 0.000000 0.000000
												CHANNELS 3 Xrotation Yrotation Zrotation
												End Site
												{
													OFFSET 0 0 0
												}
											}
										}
									}
								}
							}
						}
						JOINT RightShoulder_virtual
						{
							OFFSET 0.000000 0.000000 0.000000
							CHANNELS 3 Xrotation Yrotation Zrotation
							JOINT RightShoulder
							{
								OFFSET -6.292450 5.785301 -0.669000
								CHANNELS 3 Xrotation Yrotation Zrotation
								JOINT RightShoulder_split
								{
									OFFSET -6.292450 5.785301 -0.669000
									CHANNELS 3 Xrotation Yrotation Zrotation
									JOINT RightArm
									{
										OFFSET -13.907140 -6.093903 1.965100
										CHANNELS 3 Xrotation Yrotation Zrotation
										JOINT RightForeArm
										{
											OFFSET -34.140198 0.000000 0.000000
											CHANNELS 3 Xrotation Yrotation Zrotation
											JOINT RightHand
											{
												OFFSET -40.960209 0.000000 0.000000
												CHANNELS 3 Xrotation Yrotation Zrotation
												End Site
												{
													OFFSET 0 0 0
												}
											}
										}
									}
								}
							}
						}
					}
				}
			}
		}
	}
}
MOTION
Frames: 5
Frame Time: 0.03333333
-0.183897 146.703430 8.410061 0.000000 0.000000 0.000000 4.427128 -37.462570 5.435037 -77.975905 -17.840183 30.373687 62.720254 0.000724 7.118918 9.076309 0.037217 -0.001707 -0.000261 -0.007722 0.000049 0.000000 0.000000 0.000000 4.427128 -37.462570 5.435037 -122.832333 -51.508960 1.140421 119.109579 9.078572 -16.706962 21.301839 0.414202 25.449889 -0.000194 0.000202 -0.000336 0.000000 0.000000 0.000000 4.427128 -37.462570 5.435037 30.107774 -5.257258 -10.348316 12.785628 1.087593 -3.033126 0.000000 0.000000 0.000000 0.000000 0.000000 0.000000 12.733216 1.050406 -3.241308 -8.164159 20.999282 -13.038086 -23.845971 13.475289 4.639317 0.000000 0.000000 0.000000 12.733216 1.050406 -3.241308 9.829644 -9.813828 -1.458545 0.000000 0.000000 0.000000 -62.537731 12.081217 3.106153 46.615587 -25.819840 31.530096 0.000000 0.000000 0.000000 12.733216 1.050406 -3.241308 14.990517 20.897818 -4.160224 0.000000 0.000000 0.000000 -28.001561 -11.258126 -3.541427 -45.194563 43.244031 34.197702 0.000000 0.000000 0.000000 
-0.142459 146.710541 8.462391 0.000000 0.000000 0.000000 4.303737 -36.988377 5.213894 -78.106150 -17.802601 30.280681 62.783475 1.251674 7.796839 9.292455 -0.715619 1.392005 0.215736 -0.007770 -0.000022 0.000000 0.000000 0.000000 4.303737 -36.988377 5.213894 -123.456298 -51.478729 1.158847 119.319744 8.754826 -16.745776 22.527176 0.521891 26.252126 -0.000202 0.000185 -0.000355 0.000000 0.000000 0.000000 4.303737 -36.988377 5.213894 30.108041 -5.313970 -10.337056 12.798050 1.087546 -3.033115 0.000000 0.000000 0.000000 0.000000 0.000000 0.000000 12.745777 1.050443 -3.241320 -8.938873 20.977123 -13.011266 -25.364814 13.878973 5.705352 0.000000 0.000000 0.000000 12.745777 1.050443 -3.241320 10.133434 -9.721069 -0.028968 0.000000 0.000000 0.000000 -63.361377 10.080294 4.356418 46.550038 -25.690314 31.376742 0.000000 0.000000 0.000000 12.745777 1.050443 -3.241320 15.618568 20.231679 -5.707900 0.000000 0.000000 0.000000 -29.640118 -12.140666 -3.854858 -46.313781 44.391814 35.807817 0.000000 0.000000 0.000000 
-0.069177 146.711853 8.477108 0.000000 0.000000 0.000000 4.188297 -36.553506 4.973774 -78.206206 -17.937023 30.271952 62.913706 0.955973 7.633892 9.622904 -0.720002 1.709830 0.180614 -0.007781 0.000009 0.000000 0.000000 0.000000 4.188297 -36.553506 4.973774 -124.073979 -51.541417 1.067122 119.568130 8.326607 -16.754999 23.009762 0.588269 26.564467 -0.000227 0.000176 -0.000343 0.000000 0.000000 0.000000 4.188297 -36.553506 4.973774 30.121373 -5.333423 -10.304533 12.836341 1.087552 -3.033108 0.000000 0.000000 0.000000 0.000000 0.000000 0.000000 12.784349 1.050453 -3.241322 -8.866094 20.938416 -12.983737 -25.347686 13.462039 5.688112 0.000000 0.000000 0.000000 12.784349 1.050453 -3.241322 10.430028 -9.904275 1.491893 0.000000 0.000000 0.000000 -64.152600 7.747714 5.238486 46.442455 -25.463707 31.110634 0.000000 0.000000 0.000000 12.784349 1.050453 -3.241322 16.239461 19.506942 -7.293202 0.000000 0.000000 0.000000 -31.353382 -13.054803 -4.253622 -47.590883 45.600809 37.608231 0.000000 0.000000 0.000000 
0.013547 146.711243 8.477554 0.000000 0.000000 0.000000 4.074810 -36.115636 4.731214 -78.362248 -18.101550 30.268864 63.095307 0.544148 7.407718 9.983222 -0.609811 1.973435 0.203216 -0.007777 0.000050 0.000000 0.000000 0.000000 4.074810 -36.115636 4.731214 -124.678396 -51.604565 0.969890 119.798677 7.904015 -16.763543 23.474066 0.669627 26.883129 -0.000219 0.000213 -0.000333 0.000000 0.000000 0.000000 4.074810 -36.115636 4.731214 30.143787 -5.358440 -10.262714 12.896413 1.087574 -3.033108 0.000000 0.000000 0.000000 0.000000 0.000000 0.000000 12.844856 1.047248 -3.240666 -8.768852 20.881820 -13.000380 -25.355819 13.108479 5.575850 0.000000 0.000000 0.000000 12.844856 1.047248 -3.240666 10.741675 -10.297291 3.065309 0.000000 0.000000 0.000000 -64.952312 5.309771 5.718526 46.310001 -25.181640 30.784107 0.000000 0.000000 0.000000 12.844856 1.047248 -3.240666 16.860655 18.882277 -8.907518 0.000000 0.000000 0.000000 -33.079388 -13.866480 -4.670741 -48.903943 46.741467 39.420539 0.000000 0.000000 0.000000 
0.110224 146.709656 8.474483 0.000000 0.000000 0.000000 3.961633 -35.668214 4.482890 -78.565207 -18.305214 30.277221 63.298423 0.348798 7.300652 10.382684 -0.768530 2.261629 0.204467 -0.007756 0.000020 0.000000 0.000000 0.000000 3.961633 -35.668214 4.482890 -125.242215 -51.650580 0.862902 119.996370 7.485810 -16.769115 23.947118 0.744182 27.164492 -0.000177 0.000203 -0.000300 0.000000 0.000000 0.000000 3.961633 -35.668214 4.482890 30.176688 -5.388363 -10.217468 12.974685 1.072767 -3.030063 0.000000 0.000000 0.000000 0.000000 0.000000 0.000000 12.923666 1.030315 -3.237157 -8.657807 20.860327 -12.990603 -25.298869 12.873069 5.441934 0.000000 0.000000 0.000000 12.923666 1.030315 -3.237157 11.083767 -10.832093 4.652777 0.000000 0.000000 0.000000 -65.798866 3.000804 5.773096 46.169657 -24.886067 30.443891 0.000000 0.000000 0.000000 12.923666 1.030315 -3.237157 17.482853 18.421205 -10.518580 0.000000 0.000000 0.000000 -34.745825 -14.448036 -5.024520 -50.097020 47.691946 41.032317 0.000000 0.000000 0.000000 
